<svg xmlns:xlink="http://www.w3.org/1999/xlink" fill="currentColor" xmlns="http://www.w3.org/2000/svg" viewBox="0 0 32 32" width="32"  height="32" ><path fill-rule="evenodd" d="M2.586 6.586A2 2 0 0 1 4 6h8a5 5 0 0 1 4 2q.212-.282.465-.536A5 5 0 0 1 20 6h8a2 2 0 0 1 2 2v16a2 2 0 0 1-2 2h-8a3 3 0 0 0-3 3 1 1 0 1 1-2 0 3 3 0 0 0-3-3H4a2 2 0 0 1-2-2V8a2 2 0 0 1 .586-1.414M15 25a5 5 0 0 0-3-1H4V8h8a3 3 0 0 1 3 3zm2 0a5 5 0 0 1 3-1h8V8h-8a3 3 0 0 0-3 3z" clip-rule="evenodd" fill="#0D1619"></path></svg>