<svg xmlns:xlink="http://www.w3.org/1999/xlink" id="img" fill="currentColor" xmlns="http://www.w3.org/2000/svg" viewBox="0 0 48 48" style="width: 20px; height: 20px;" width="48"  height="48" ><path d="M24 46a21.85 21.85 0 0 1-15.556-6.444A21.86 21.86 0 0 1 2 24 21.85 21.85 0 0 1 8.444 8.444 21.85 21.85 0 0 1 24 2a21.85 21.85 0 0 1 15.556 6.444A21.86 21.86 0 0 1 46 24a21.85 21.85 0 0 1-6.444 15.556A21.86 21.86 0 0 1 24 46m0-42C12.972 4 4 12.972 4 24s8.972 20 20 20 20-8.972 20-20S35.028 4 24 4" fill="#6950F3"></path><path d="M24 35.5c-6.617 0-12-5.159-12-11.5h2c0 5.238 4.486 9.5 10 9.5s10-4.262 10-9.5h2c0 6.341-5.383 11.5-12 11.5M17 19a2.5 2.5 0 1 0 0-5 2.5 2.5 0 0 0 0 5M31 19a2.5 2.5 0 1 0 0-5 2.5 2.5 0 0 0 0 5" fill="#6950F3"></path></svg>