<svg xmlns:xlink="http://www.w3.org/1999/xlink" fill="currentColor" xmlns="http://www.w3.org/2000/svg" viewBox="0 0 32 32" width="32"  height="32" ><path fill-rule="evenodd" d="M10.879 3.545A3 3 0 0 1 13 2.667h6a3 3 0 0 1 3 3v1h5a1 1 0 1 1 0 2h-1v18a2 2 0 0 1-2 2H8a2 2 0 0 1-2-2v-18H5a1 1 0 0 1 0-2h5v-1a3 3 0 0 1 .879-2.122M8 8.667v18h16v-18zm12-2h-8v-1a1 1 0 0 1 1-1h6a1 1 0 0 1 1 1zm-7 6a1 1 0 0 1 1 1v8a1 1 0 1 1-2 0v-8a1 1 0 0 1 1-1m5 1a1 1 0 1 1 2 0v8a1 1 0 1 1-2 0z" clip-rule="evenodd" fill="#D4163A"></path></svg>