<svg xmlns:xlink="http://www.w3.org/1999/xlink" fill="currentColor" xmlns="http://www.w3.org/2000/svg" viewBox="0 0 32 32" width="32"  height="32" ><path fill-rule="evenodd" d="M5 12.5a8.5 8.5 0 1 1 13.006 7.209c2.671.874 4.964 2.512 6.76 4.648a1 1 0 1 1-1.531 1.286C20.835 22.79 17.48 21 13.5 21s-7.335 1.79-9.734 4.643a1 1 0 1 1-1.531-1.286c1.795-2.136 4.088-3.774 6.759-4.648A8.5 8.5 0 0 1 5 12.5M13.5 6a6.5 6.5 0 1 0 0 13 6.5 6.5 0 0 0 0-13" clip-rule="evenodd" fill="#6950F3"></path><path d="M29 14a1 1 0 1 0-2 0v2h-2a1 1 0 1 0 0 2h2v2a1 1 0 1 0 2 0v-2h2a1 1 0 1 0 0-2h-2z" fill="#6950F3"></path></svg>