<svg xmlns:xlink="http://www.w3.org/1999/xlink" fill="currentColor" xmlns="http://www.w3.org/2000/svg" viewBox="0 0 32 32" width="32"  height="32" ><path fill-rule="evenodd" d="M2.667 6a2 2 0 0 1 2-2h22.666a2 2 0 0 1 2 2v20a2 2 0 0 1-2 2H4.667a2 2 0 0 1-2-2zm24.666 0H4.667v20h22.666zM16 12a3 3 0 1 0 0 6 3 3 0 0 0 0-6m3.43 6.638a5 5 0 1 0-6.86 0 8 8 0 0 0-.893.423c-1.253.696-2.22 1.719-2.627 2.961a1 1 0 1 0 1.9.622c.213-.65.77-1.32 1.698-1.834.925-.514 2.107-.81 3.352-.81s2.427.296 3.352.81c.928.515 1.485 1.183 1.698 1.834a1 1 0 0 0 1.9-.622c-.406-1.242-1.374-2.265-2.627-2.96a8 8 0 0 0-.893-.424" clip-rule="evenodd" fill="#0D1619"></path></svg>