<svg xmlns:xlink="http://www.w3.org/1999/xlink" fill="currentColor" xmlns="http://www.w3.org/2000/svg" viewBox="0 0 32 32" width="32"  height="32" ><path fill-rule="evenodd" d="M15.145 2.256a2 2 0 0 1 1.8.55l13.046 13.046a1.99 1.99 0 0 1 0 2.834L18.686 29.99a1.987 1.987 0 0 1-2.834 0L2.806 16.945a2 2 0 0 1-.55-1.8v-.003L4.27 5.054a1 1 0 0 1 .785-.785l10.088-2.012zm.385 1.963L6.1 6.1 4.22 15.53l13.05 13.05 11.31-11.311z" clip-rule="evenodd" fill="#6950F3"></path><path d="M10.5 12a1.5 1.5 0 1 0 0-3 1.5 1.5 0 0 0 0 3" fill="#6950F3"></path></svg>