<svg xmlns:xlink="http://www.w3.org/1999/xlink" fill="currentColor" xmlns="http://www.w3.org/2000/svg" viewBox="0 0 32 32" width="32"  height="32" ><path d="M16 10a6 6 0 1 0 6 6 6.007 6.007 0 0 0-6-6m0 10a4 4 0 1 1 0-8 4 4 0 0 1 0 8m13.743-6.599a1 1 0 0 0-.487-.675l-3.729-2.125-.015-4.202a1 1 0 0 0-.353-.76 14 14 0 0 0-4.59-2.584 1 1 0 0 0-.808.074L16 5.23l-3.765-2.106a1 1 0 0 0-.809-.075 14 14 0 0 0-4.585 2.594 1 1 0 0 0-.354.758L6.47 10.61 2.74 12.734a1 1 0 0 0-.486.675 13.3 13.3 0 0 0 0 5.195 1 1 0 0 0 .486.675l3.729 2.125.015 4.202a1 1 0 0 0 .353.76 14 14 0 0 0 4.59 2.584 1 1 0 0 0 .808-.074L16 26.77l3.765 2.106a1.013 1.013 0 0 0 .809.073 14 14 0 0 0 4.585-2.592 1 1 0 0 0 .354-.759l.018-4.206 3.729-2.125a1 1 0 0 0 .486-.675c.34-1.713.338-3.477-.003-5.19m-1.875 4.364-3.572 2.031a1 1 0 0 0-.375.375c-.072.125-.148.258-.226.383a1 1 0 0 0-.152.526l-.02 4.031c-.96.754-2.029 1.357-3.17 1.788L16.75 24.89a1 1 0 0 0-.489-.125h-.478a1 1 0 0 0-.513.125l-3.605 2.013a12 12 0 0 1-3.18-1.779L8.471 21.1a1 1 0 0 0-.152-.527 7 7 0 0 1-.225-.383 1 1 0 0 0-.375-.383l-3.575-2.036a11.3 11.3 0 0 1 0-3.532l3.565-2.035a1 1 0 0 0 .375-.375c.072-.125.148-.258.226-.383.1-.157.152-.34.152-.526l.02-4.031c.96-.754 2.029-1.357 3.17-1.788L15.25 7.11a1 1 0 0 0 .512.125h.456a1 1 0 0 0 .512-.125l3.605-2.013a12 12 0 0 1 3.18 1.779l.014 4.025c0 .187.053.37.152.527.078.126.154.25.225.383.089.159.218.291.375.383l3.575 2.036c.188 1.17.19 2.364.006 3.536z" fill="#0D1619"></path></svg>